<?xml version="1.0" encoding="UTF-8" standalone="no"?>
<svg
        viewBox="0 0 24 24"
        width="24"
        height="24"
        color="#000000"
        fill="none"
        version="1.1"
        id="svg4"
        xmlns="http://www.w3.org/2000/svg">
    <path
            d="M22 12C22 17.5228 17.5228 22 12 22C6.47715 22 2 17.5228 2 12C2 6.47715 6.47715 2 12 2C17.5228 2 22 6.47715 22 12Z"
            stroke="currentColor"
            stroke-width="1.5"
            stroke-linecap="round"
            stroke-linejoin="round"
            id="path1"/>
    <path
            d="M15 10V12C15 13.4142 15 14.1213 14.5607 14.5607C14.1213 15 13.4142 15 12 15H10M14 14L9 9"
            stroke="currentColor"
            stroke-width="1.5"
            stroke-linecap="round"
            stroke-linejoin="round"
            id="path2"/>
    <path
            d="m 10.720706,13.096194 c 0,-0.884814 0,-1.327224 0.274877,-1.602101 0.274877,-0.274877 0.717287,-0.274877 1.6021,-0.274877 0.884814,0 1.327223,0 1.6021,0.274877 0.274877,0.274877 0.274877,0.717287 0.274877,1.602101 v 6.256591 c 0,0.884807 0,1.327211 -0.274877,1.602125 -0.274877,0.274852 -0.717286,0.274852 -1.6021,0.274852 -0.884813,0 -1.327223,0 -1.6021,-0.274852 -0.274877,-0.274914 -0.274877,-0.717318 -0.274877,-1.602125 z"
            stroke="#222"
            stroke-width="0.938489"
            id="path3"/>
    <path
            d="m 16.357121,12.969315 c 0,-0.894714 0,-1.342075 0.277928,-1.620028 0.277991,-0.277953 0.725345,-0.277953 1.620053,-0.277953 0.894708,0 1.342062,0 1.620053,0.277953 0.277928,0.277953 0.277928,0.725314 0.277928,1.620028 v 6.326603 c 0,0.894708 0,1.342062 -0.277928,1.620053 -0.277991,0.277928 -0.725345,0.277928 -1.620053,0.277928 -0.894708,0 -1.342062,0 -1.620053,-0.277928 -0.277928,-0.277991 -0.277928,-0.725345 -0.277928,-1.620053 z"
            stroke="#222"
            stroke-width="0.94899"
            id="path4"/>
</svg>